<mxfile host="app.diagrams.net" modified="2022-08-26T10:43:01.240Z" agent="5.0 (Macintosh; Intel Mac OS X 10_15_7) AppleWebKit/537.36 (KHTML, like Gecko) Chrome/104.0.0.0 Safari/537.36" etag="FOkme0_I8oNKD79vmHdM" version="20.2.7" type="github">
  <diagram id="5tT6JGEHEpbYU6vvurMg" name="หน้า-1">
    <mxGraphModel dx="1097" dy="567" grid="1" gridSize="10" guides="1" tooltips="1" connect="1" arrows="1" fold="1" page="1" pageScale="1" pageWidth="827" pageHeight="1169" math="0" shadow="0">
      <root>
        <mxCell id="0" />
        <mxCell id="1" parent="0" />
        <mxCell id="md4ZXIJqfUd8ClGtYBUJ-120" value="เริ่มต้น" style="ellipse;whiteSpace=wrap;html=1;" vertex="1" parent="1">
          <mxGeometry x="100" y="80" width="80" height="40" as="geometry" />
        </mxCell>
        <mxCell id="md4ZXIJqfUd8ClGtYBUJ-122" value="ตรวจสอบข้อมูล VerifyToken" style="rounded=1;whiteSpace=wrap;html=1;" vertex="1" parent="1">
          <mxGeometry x="80" y="150" width="120" height="60" as="geometry" />
        </mxCell>
        <mxCell id="md4ZXIJqfUd8ClGtYBUJ-119" value="" style="edgeStyle=orthogonalEdgeStyle;rounded=0;orthogonalLoop=1;jettySize=auto;html=1;" edge="1" parent="1" source="md4ZXIJqfUd8ClGtYBUJ-120" target="md4ZXIJqfUd8ClGtYBUJ-122">
          <mxGeometry relative="1" as="geometry" />
        </mxCell>
        <mxCell id="md4ZXIJqfUd8ClGtYBUJ-139" style="edgeStyle=orthogonalEdgeStyle;rounded=0;orthogonalLoop=1;jettySize=auto;html=1;entryX=0;entryY=0.5;entryDx=0;entryDy=0;" edge="1" parent="1" source="md4ZXIJqfUd8ClGtYBUJ-124" target="md4ZXIJqfUd8ClGtYBUJ-140">
          <mxGeometry relative="1" as="geometry">
            <mxPoint x="240" y="280.0000000000001" as="targetPoint" />
            <Array as="points">
              <mxPoint x="210" y="280" />
              <mxPoint x="210" y="40" />
            </Array>
          </mxGeometry>
        </mxCell>
        <mxCell id="md4ZXIJqfUd8ClGtYBUJ-124" value="มีข้อมูล" style="rhombus;whiteSpace=wrap;html=1;rounded=1;" vertex="1" parent="1">
          <mxGeometry x="100" y="240" width="80" height="80" as="geometry" />
        </mxCell>
        <mxCell id="md4ZXIJqfUd8ClGtYBUJ-121" value="" style="edgeStyle=orthogonalEdgeStyle;rounded=0;orthogonalLoop=1;jettySize=auto;html=1;" edge="1" parent="1" source="md4ZXIJqfUd8ClGtYBUJ-122" target="md4ZXIJqfUd8ClGtYBUJ-124">
          <mxGeometry relative="1" as="geometry" />
        </mxCell>
        <mxCell id="md4ZXIJqfUd8ClGtYBUJ-123" value="" style="edgeStyle=orthogonalEdgeStyle;rounded=0;orthogonalLoop=1;jettySize=auto;html=1;" edge="1" parent="1" source="md4ZXIJqfUd8ClGtYBUJ-124">
          <mxGeometry relative="1" as="geometry">
            <mxPoint x="140" y="340" as="targetPoint" />
          </mxGeometry>
        </mxCell>
        <mxCell id="md4ZXIJqfUd8ClGtYBUJ-128" value="ใช่" style="text;html=1;align=center;verticalAlign=middle;resizable=0;points=[];autosize=1;strokeColor=none;fillColor=none;" vertex="1" parent="1">
          <mxGeometry x="140" y="310" width="40" height="30" as="geometry" />
        </mxCell>
        <mxCell id="md4ZXIJqfUd8ClGtYBUJ-133" value="ตรวจสอบข้อมูล otpToken" style="whiteSpace=wrap;html=1;rounded=1;" vertex="1" parent="1">
          <mxGeometry x="80" y="340" width="120" height="60" as="geometry" />
        </mxCell>
        <mxCell id="md4ZXIJqfUd8ClGtYBUJ-142" style="edgeStyle=orthogonalEdgeStyle;rounded=0;orthogonalLoop=1;jettySize=auto;html=1;entryX=0;entryY=0.5;entryDx=0;entryDy=0;" edge="1" parent="1" source="md4ZXIJqfUd8ClGtYBUJ-135" target="md4ZXIJqfUd8ClGtYBUJ-141">
          <mxGeometry relative="1" as="geometry">
            <Array as="points">
              <mxPoint x="220" y="465" />
              <mxPoint x="220" y="90" />
            </Array>
          </mxGeometry>
        </mxCell>
        <mxCell id="md4ZXIJqfUd8ClGtYBUJ-146" value="" style="edgeStyle=orthogonalEdgeStyle;rounded=0;orthogonalLoop=1;jettySize=auto;html=1;" edge="1" parent="1" source="md4ZXIJqfUd8ClGtYBUJ-135" target="md4ZXIJqfUd8ClGtYBUJ-145">
          <mxGeometry relative="1" as="geometry" />
        </mxCell>
        <mxCell id="md4ZXIJqfUd8ClGtYBUJ-135" value="มีข้อมูล" style="rhombus;whiteSpace=wrap;html=1;rounded=1;" vertex="1" parent="1">
          <mxGeometry x="100" y="425" width="80" height="80" as="geometry" />
        </mxCell>
        <mxCell id="md4ZXIJqfUd8ClGtYBUJ-132" value="" style="edgeStyle=orthogonalEdgeStyle;rounded=0;orthogonalLoop=1;jettySize=auto;html=1;" edge="1" parent="1" source="md4ZXIJqfUd8ClGtYBUJ-133" target="md4ZXIJqfUd8ClGtYBUJ-135">
          <mxGeometry relative="1" as="geometry" />
        </mxCell>
        <mxCell id="md4ZXIJqfUd8ClGtYBUJ-138" value="ไม่ใช่" style="text;html=1;align=center;verticalAlign=middle;resizable=0;points=[];autosize=1;strokeColor=none;fillColor=none;" vertex="1" parent="1">
          <mxGeometry x="155" y="245" width="50" height="30" as="geometry" />
        </mxCell>
        <mxCell id="md4ZXIJqfUd8ClGtYBUJ-169" style="edgeStyle=orthogonalEdgeStyle;rounded=0;orthogonalLoop=1;jettySize=auto;html=1;" edge="1" parent="1" source="md4ZXIJqfUd8ClGtYBUJ-140">
          <mxGeometry relative="1" as="geometry">
            <mxPoint x="690" y="100" as="targetPoint" />
          </mxGeometry>
        </mxCell>
        <mxCell id="md4ZXIJqfUd8ClGtYBUJ-140" value="ส่ง Error Code 3&lt;br&gt;ไม่พบข้อมูล&amp;nbsp;VerifyToken" style="rounded=1;whiteSpace=wrap;html=1;" vertex="1" parent="1">
          <mxGeometry x="240" y="20" width="150" height="40" as="geometry" />
        </mxCell>
        <mxCell id="md4ZXIJqfUd8ClGtYBUJ-170" style="edgeStyle=orthogonalEdgeStyle;rounded=0;orthogonalLoop=1;jettySize=auto;html=1;" edge="1" parent="1" source="md4ZXIJqfUd8ClGtYBUJ-141">
          <mxGeometry relative="1" as="geometry">
            <mxPoint x="690" y="150" as="targetPoint" />
          </mxGeometry>
        </mxCell>
        <mxCell id="md4ZXIJqfUd8ClGtYBUJ-141" value="ส่ง Error Code 4&lt;br&gt;ไม่มีข้อมูล otpToken" style="rounded=1;whiteSpace=wrap;html=1;" vertex="1" parent="1">
          <mxGeometry x="245" y="70" width="150" height="40" as="geometry" />
        </mxCell>
        <mxCell id="md4ZXIJqfUd8ClGtYBUJ-143" value="ไม่ใช่" style="text;html=1;align=center;verticalAlign=middle;resizable=0;points=[];autosize=1;strokeColor=none;fillColor=none;" vertex="1" parent="1">
          <mxGeometry x="160" y="425" width="50" height="30" as="geometry" />
        </mxCell>
        <mxCell id="md4ZXIJqfUd8ClGtYBUJ-144" value="ใช่" style="text;html=1;align=center;verticalAlign=middle;resizable=0;points=[];autosize=1;strokeColor=none;fillColor=none;" vertex="1" parent="1">
          <mxGeometry x="140" y="490" width="40" height="30" as="geometry" />
        </mxCell>
        <mxCell id="md4ZXIJqfUd8ClGtYBUJ-149" value="" style="edgeStyle=orthogonalEdgeStyle;rounded=0;orthogonalLoop=1;jettySize=auto;html=1;" edge="1" parent="1" source="md4ZXIJqfUd8ClGtYBUJ-145" target="md4ZXIJqfUd8ClGtYBUJ-148">
          <mxGeometry relative="1" as="geometry" />
        </mxCell>
        <mxCell id="md4ZXIJqfUd8ClGtYBUJ-145" value="ตรวจสอบข้อมูล&amp;nbsp;&lt;br&gt;actionType" style="whiteSpace=wrap;html=1;rounded=1;" vertex="1" parent="1">
          <mxGeometry x="80" y="535" width="120" height="60" as="geometry" />
        </mxCell>
        <mxCell id="md4ZXIJqfUd8ClGtYBUJ-172" style="edgeStyle=orthogonalEdgeStyle;rounded=0;orthogonalLoop=1;jettySize=auto;html=1;entryX=0.5;entryY=0;entryDx=0;entryDy=0;" edge="1" parent="1" source="md4ZXIJqfUd8ClGtYBUJ-148" target="md4ZXIJqfUd8ClGtYBUJ-173">
          <mxGeometry relative="1" as="geometry">
            <mxPoint x="140" y="760" as="targetPoint" />
          </mxGeometry>
        </mxCell>
        <mxCell id="md4ZXIJqfUd8ClGtYBUJ-175" style="edgeStyle=orthogonalEdgeStyle;rounded=0;orthogonalLoop=1;jettySize=auto;html=1;entryX=0;entryY=0.5;entryDx=0;entryDy=0;" edge="1" parent="1" source="md4ZXIJqfUd8ClGtYBUJ-148" target="md4ZXIJqfUd8ClGtYBUJ-150">
          <mxGeometry relative="1" as="geometry">
            <mxPoint x="240" y="290" as="targetPoint" />
            <Array as="points">
              <mxPoint x="230" y="670" />
              <mxPoint x="230" y="140" />
            </Array>
          </mxGeometry>
        </mxCell>
        <mxCell id="md4ZXIJqfUd8ClGtYBUJ-148" value="มีข้อมูล" style="rhombus;whiteSpace=wrap;html=1;rounded=1;" vertex="1" parent="1">
          <mxGeometry x="100" y="630" width="80" height="80" as="geometry" />
        </mxCell>
        <mxCell id="md4ZXIJqfUd8ClGtYBUJ-171" style="edgeStyle=orthogonalEdgeStyle;rounded=0;orthogonalLoop=1;jettySize=auto;html=1;" edge="1" parent="1" source="md4ZXIJqfUd8ClGtYBUJ-150">
          <mxGeometry relative="1" as="geometry">
            <mxPoint x="690.0000000000002" y="200" as="targetPoint" />
          </mxGeometry>
        </mxCell>
        <mxCell id="md4ZXIJqfUd8ClGtYBUJ-150" value="ส่ง Error Code 5&lt;br&gt;ไม่มีข้อมูล actionType" style="rounded=1;whiteSpace=wrap;html=1;" vertex="1" parent="1">
          <mxGeometry x="245" y="120" width="150" height="40" as="geometry" />
        </mxCell>
        <mxCell id="md4ZXIJqfUd8ClGtYBUJ-152" value="ไม่ใช่" style="text;html=1;align=center;verticalAlign=middle;resizable=0;points=[];autosize=1;strokeColor=none;fillColor=none;" vertex="1" parent="1">
          <mxGeometry x="175" y="635" width="50" height="30" as="geometry" />
        </mxCell>
        <mxCell id="md4ZXIJqfUd8ClGtYBUJ-153" value="ใช่" style="text;html=1;align=center;verticalAlign=middle;resizable=0;points=[];autosize=1;strokeColor=none;fillColor=none;" vertex="1" parent="1">
          <mxGeometry x="140" y="715" width="40" height="30" as="geometry" />
        </mxCell>
        <mxCell id="md4ZXIJqfUd8ClGtYBUJ-159" value="" style="edgeStyle=orthogonalEdgeStyle;rounded=0;orthogonalLoop=1;jettySize=auto;html=1;" edge="1" parent="1" source="md4ZXIJqfUd8ClGtYBUJ-157" target="md4ZXIJqfUd8ClGtYBUJ-158">
          <mxGeometry relative="1" as="geometry" />
        </mxCell>
        <mxCell id="md4ZXIJqfUd8ClGtYBUJ-157" value="ตรวจสอบสถานะ&lt;br&gt;actionType" style="rounded=1;whiteSpace=wrap;html=1;" vertex="1" parent="1">
          <mxGeometry x="275" y="230" width="120" height="60" as="geometry" />
        </mxCell>
        <mxCell id="md4ZXIJqfUd8ClGtYBUJ-161" style="edgeStyle=orthogonalEdgeStyle;rounded=0;orthogonalLoop=1;jettySize=auto;html=1;entryX=0.5;entryY=0;entryDx=0;entryDy=0;" edge="1" parent="1" source="md4ZXIJqfUd8ClGtYBUJ-158" target="md4ZXIJqfUd8ClGtYBUJ-203">
          <mxGeometry relative="1" as="geometry">
            <mxPoint x="560" y="340" as="targetPoint" />
            <Array as="points">
              <mxPoint x="575" y="260" />
            </Array>
          </mxGeometry>
        </mxCell>
        <mxCell id="md4ZXIJqfUd8ClGtYBUJ-166" style="edgeStyle=orthogonalEdgeStyle;rounded=0;orthogonalLoop=1;jettySize=auto;html=1;" edge="1" parent="1" source="md4ZXIJqfUd8ClGtYBUJ-158" target="md4ZXIJqfUd8ClGtYBUJ-164">
          <mxGeometry relative="1" as="geometry">
            <Array as="points">
              <mxPoint x="480" y="320" />
              <mxPoint x="345" y="320" />
            </Array>
          </mxGeometry>
        </mxCell>
        <mxCell id="md4ZXIJqfUd8ClGtYBUJ-158" value="ประเภท" style="rhombus;whiteSpace=wrap;html=1;rounded=1;" vertex="1" parent="1">
          <mxGeometry x="440" y="220" width="80" height="80" as="geometry" />
        </mxCell>
        <mxCell id="md4ZXIJqfUd8ClGtYBUJ-162" value="F" style="text;html=1;align=center;verticalAlign=middle;resizable=0;points=[];autosize=1;strokeColor=none;fillColor=none;" vertex="1" parent="1">
          <mxGeometry x="515" y="225" width="30" height="30" as="geometry" />
        </mxCell>
        <mxCell id="md4ZXIJqfUd8ClGtYBUJ-163" value="R" style="text;html=1;align=center;verticalAlign=middle;resizable=0;points=[];autosize=1;strokeColor=none;fillColor=none;" vertex="1" parent="1">
          <mxGeometry x="440" y="290" width="30" height="30" as="geometry" />
        </mxCell>
        <mxCell id="md4ZXIJqfUd8ClGtYBUJ-186" value="" style="edgeStyle=orthogonalEdgeStyle;rounded=0;orthogonalLoop=1;jettySize=auto;html=1;" edge="1" parent="1" source="md4ZXIJqfUd8ClGtYBUJ-164" target="md4ZXIJqfUd8ClGtYBUJ-185">
          <mxGeometry relative="1" as="geometry" />
        </mxCell>
        <mxCell id="md4ZXIJqfUd8ClGtYBUJ-164" value="ค้นหาข้อมูลใน Table Request Temp ที่ verifyToken ตรงกัน" style="rounded=1;whiteSpace=wrap;html=1;" vertex="1" parent="1">
          <mxGeometry x="260" y="340" width="170" height="50" as="geometry" />
        </mxCell>
        <mxCell id="md4ZXIJqfUd8ClGtYBUJ-177" value="" style="edgeStyle=orthogonalEdgeStyle;rounded=0;orthogonalLoop=1;jettySize=auto;html=1;" edge="1" parent="1" source="md4ZXIJqfUd8ClGtYBUJ-173" target="md4ZXIJqfUd8ClGtYBUJ-176">
          <mxGeometry relative="1" as="geometry" />
        </mxCell>
        <mxCell id="md4ZXIJqfUd8ClGtYBUJ-173" value="ตรวจสอบข้อมูล numberOTP" style="rounded=1;whiteSpace=wrap;html=1;" vertex="1" parent="1">
          <mxGeometry x="80" y="750" width="120" height="60" as="geometry" />
        </mxCell>
        <mxCell id="md4ZXIJqfUd8ClGtYBUJ-178" style="edgeStyle=orthogonalEdgeStyle;rounded=0;orthogonalLoop=1;jettySize=auto;html=1;entryX=0;entryY=0.5;entryDx=0;entryDy=0;" edge="1" parent="1" source="md4ZXIJqfUd8ClGtYBUJ-176" target="md4ZXIJqfUd8ClGtYBUJ-179">
          <mxGeometry relative="1" as="geometry">
            <mxPoint x="250" y="220" as="targetPoint" />
            <Array as="points">
              <mxPoint x="240" y="890" />
              <mxPoint x="240" y="190" />
            </Array>
          </mxGeometry>
        </mxCell>
        <mxCell id="md4ZXIJqfUd8ClGtYBUJ-182" style="edgeStyle=orthogonalEdgeStyle;rounded=0;orthogonalLoop=1;jettySize=auto;html=1;entryX=0;entryY=0.5;entryDx=0;entryDy=0;exitX=0.457;exitY=0.928;exitDx=0;exitDy=0;exitPerimeter=0;" edge="1" parent="1" source="md4ZXIJqfUd8ClGtYBUJ-176" target="md4ZXIJqfUd8ClGtYBUJ-157">
          <mxGeometry relative="1" as="geometry">
            <mxPoint x="260" y="520" as="targetPoint" />
            <Array as="points">
              <mxPoint x="137" y="940" />
              <mxPoint x="250" y="940" />
              <mxPoint x="250" y="260" />
            </Array>
          </mxGeometry>
        </mxCell>
        <mxCell id="md4ZXIJqfUd8ClGtYBUJ-176" value="มีข้อมูล" style="rhombus;whiteSpace=wrap;html=1;rounded=1;" vertex="1" parent="1">
          <mxGeometry x="100" y="850" width="80" height="80" as="geometry" />
        </mxCell>
        <mxCell id="md4ZXIJqfUd8ClGtYBUJ-180" style="edgeStyle=orthogonalEdgeStyle;rounded=0;orthogonalLoop=1;jettySize=auto;html=1;" edge="1" parent="1" source="md4ZXIJqfUd8ClGtYBUJ-179">
          <mxGeometry relative="1" as="geometry">
            <mxPoint x="690" y="200" as="targetPoint" />
          </mxGeometry>
        </mxCell>
        <mxCell id="md4ZXIJqfUd8ClGtYBUJ-179" value="ส่ง Error Code 6&lt;br&gt;ไม่มีข้อมูล numberOTP" style="rounded=1;whiteSpace=wrap;html=1;" vertex="1" parent="1">
          <mxGeometry x="255" y="170" width="150" height="40" as="geometry" />
        </mxCell>
        <mxCell id="md4ZXIJqfUd8ClGtYBUJ-181" value="ไม่ใช่" style="text;html=1;align=center;verticalAlign=middle;resizable=0;points=[];autosize=1;strokeColor=none;fillColor=none;" vertex="1" parent="1">
          <mxGeometry x="165" y="855" width="50" height="30" as="geometry" />
        </mxCell>
        <mxCell id="md4ZXIJqfUd8ClGtYBUJ-183" value="ใช่" style="text;html=1;align=center;verticalAlign=middle;resizable=0;points=[];autosize=1;strokeColor=none;fillColor=none;" vertex="1" parent="1">
          <mxGeometry x="160" y="905" width="40" height="30" as="geometry" />
        </mxCell>
        <mxCell id="md4ZXIJqfUd8ClGtYBUJ-190" value="" style="edgeStyle=orthogonalEdgeStyle;rounded=0;orthogonalLoop=1;jettySize=auto;html=1;" edge="1" parent="1" source="md4ZXIJqfUd8ClGtYBUJ-185" target="md4ZXIJqfUd8ClGtYBUJ-189">
          <mxGeometry relative="1" as="geometry" />
        </mxCell>
        <mxCell id="md4ZXIJqfUd8ClGtYBUJ-211" style="edgeStyle=orthogonalEdgeStyle;rounded=0;orthogonalLoop=1;jettySize=auto;html=1;" edge="1" parent="1" source="md4ZXIJqfUd8ClGtYBUJ-185">
          <mxGeometry relative="1" as="geometry">
            <mxPoint x="489.9999999999998" y="455.0000000000001" as="targetPoint" />
          </mxGeometry>
        </mxCell>
        <mxCell id="md4ZXIJqfUd8ClGtYBUJ-185" value="มีข้อมูล" style="rhombus;whiteSpace=wrap;html=1;rounded=1;" vertex="1" parent="1">
          <mxGeometry x="305" y="415" width="80" height="80" as="geometry" />
        </mxCell>
        <mxCell id="md4ZXIJqfUd8ClGtYBUJ-187" value="ไม่ใช่" style="text;html=1;align=center;verticalAlign=middle;resizable=0;points=[];autosize=1;strokeColor=none;fillColor=none;" vertex="1" parent="1">
          <mxGeometry x="380" y="415" width="50" height="30" as="geometry" />
        </mxCell>
        <mxCell id="md4ZXIJqfUd8ClGtYBUJ-188" value="ใช่" style="text;html=1;align=center;verticalAlign=middle;resizable=0;points=[];autosize=1;strokeColor=none;fillColor=none;" vertex="1" parent="1">
          <mxGeometry x="290" y="490" width="40" height="30" as="geometry" />
        </mxCell>
        <mxCell id="md4ZXIJqfUd8ClGtYBUJ-192" value="" style="edgeStyle=orthogonalEdgeStyle;rounded=0;orthogonalLoop=1;jettySize=auto;html=1;" edge="1" parent="1" source="md4ZXIJqfUd8ClGtYBUJ-189" target="md4ZXIJqfUd8ClGtYBUJ-191">
          <mxGeometry relative="1" as="geometry" />
        </mxCell>
        <mxCell id="md4ZXIJqfUd8ClGtYBUJ-189" value="ตรวจสอบรหัสยืนยัน OTP กับผู้ให้บริการ&amp;nbsp;" style="whiteSpace=wrap;html=1;rounded=1;" vertex="1" parent="1">
          <mxGeometry x="285" y="535" width="120" height="60" as="geometry" />
        </mxCell>
        <mxCell id="md4ZXIJqfUd8ClGtYBUJ-196" value="" style="edgeStyle=orthogonalEdgeStyle;rounded=0;orthogonalLoop=1;jettySize=auto;html=1;" edge="1" parent="1" source="md4ZXIJqfUd8ClGtYBUJ-191" target="md4ZXIJqfUd8ClGtYBUJ-195">
          <mxGeometry relative="1" as="geometry" />
        </mxCell>
        <mxCell id="md4ZXIJqfUd8ClGtYBUJ-198" value="" style="edgeStyle=orthogonalEdgeStyle;rounded=0;orthogonalLoop=1;jettySize=auto;html=1;" edge="1" parent="1" source="md4ZXIJqfUd8ClGtYBUJ-191" target="md4ZXIJqfUd8ClGtYBUJ-197">
          <mxGeometry relative="1" as="geometry" />
        </mxCell>
        <mxCell id="md4ZXIJqfUd8ClGtYBUJ-191" value="สำเร็จ" style="rhombus;whiteSpace=wrap;html=1;rounded=1;" vertex="1" parent="1">
          <mxGeometry x="305" y="630" width="80" height="80" as="geometry" />
        </mxCell>
        <mxCell id="md4ZXIJqfUd8ClGtYBUJ-193" value="ไม่ใช่" style="text;html=1;align=center;verticalAlign=middle;resizable=0;points=[];autosize=1;strokeColor=none;fillColor=none;" vertex="1" parent="1">
          <mxGeometry x="365" y="635" width="50" height="30" as="geometry" />
        </mxCell>
        <mxCell id="md4ZXIJqfUd8ClGtYBUJ-194" value="ใช่" style="text;html=1;align=center;verticalAlign=middle;resizable=0;points=[];autosize=1;strokeColor=none;fillColor=none;" vertex="1" parent="1">
          <mxGeometry x="290" y="705" width="40" height="30" as="geometry" />
        </mxCell>
        <mxCell id="md4ZXIJqfUd8ClGtYBUJ-201" value="" style="edgeStyle=orthogonalEdgeStyle;rounded=0;orthogonalLoop=1;jettySize=auto;html=1;" edge="1" parent="1" source="md4ZXIJqfUd8ClGtYBUJ-195" target="md4ZXIJqfUd8ClGtYBUJ-200">
          <mxGeometry relative="1" as="geometry" />
        </mxCell>
        <mxCell id="md4ZXIJqfUd8ClGtYBUJ-195" value="นำข้อมูลใน Request Temp ที่เงื่อนไขตรงกันเพิ่มลงไปใน Request" style="whiteSpace=wrap;html=1;rounded=1;" vertex="1" parent="1">
          <mxGeometry x="285" y="745" width="120" height="60" as="geometry" />
        </mxCell>
        <mxCell id="md4ZXIJqfUd8ClGtYBUJ-197" value="ส่ง Error Code 1&lt;br&gt;ไม่สามารถยืนยัน OTP&amp;nbsp;" style="whiteSpace=wrap;html=1;rounded=1;" vertex="1" parent="1">
          <mxGeometry x="445" y="640" width="120" height="60" as="geometry" />
        </mxCell>
        <mxCell id="md4ZXIJqfUd8ClGtYBUJ-200" value="บันทึกข้อมูลลงใน database" style="whiteSpace=wrap;html=1;rounded=1;" vertex="1" parent="1">
          <mxGeometry x="285" y="840" width="120" height="60" as="geometry" />
        </mxCell>
        <mxCell id="md4ZXIJqfUd8ClGtYBUJ-208" style="edgeStyle=orthogonalEdgeStyle;rounded=0;orthogonalLoop=1;jettySize=auto;html=1;entryX=0.5;entryY=0;entryDx=0;entryDy=0;" edge="1" parent="1" source="md4ZXIJqfUd8ClGtYBUJ-203" target="md4ZXIJqfUd8ClGtYBUJ-204">
          <mxGeometry relative="1" as="geometry" />
        </mxCell>
        <mxCell id="md4ZXIJqfUd8ClGtYBUJ-203" value="ค้นหาข้อมูลใน Table Request ที่ verifyToken ตรงกัน" style="rounded=1;whiteSpace=wrap;html=1;" vertex="1" parent="1">
          <mxGeometry x="490" y="340" width="170" height="50" as="geometry" />
        </mxCell>
        <mxCell id="md4ZXIJqfUd8ClGtYBUJ-204" value="มีข้อมูล" style="rhombus;whiteSpace=wrap;html=1;rounded=1;" vertex="1" parent="1">
          <mxGeometry x="535" y="410" width="80" height="80" as="geometry" />
        </mxCell>
        <mxCell id="md4ZXIJqfUd8ClGtYBUJ-205" value="ไม่ใช่" style="text;html=1;align=center;verticalAlign=middle;resizable=0;points=[];autosize=1;strokeColor=none;fillColor=none;" vertex="1" parent="1">
          <mxGeometry x="600" y="410" width="50" height="30" as="geometry" />
        </mxCell>
        <mxCell id="md4ZXIJqfUd8ClGtYBUJ-206" value="ใช่" style="text;html=1;align=center;verticalAlign=middle;resizable=0;points=[];autosize=1;strokeColor=none;fillColor=none;" vertex="1" parent="1">
          <mxGeometry x="525" y="475" width="40" height="30" as="geometry" />
        </mxCell>
        <mxCell id="md4ZXIJqfUd8ClGtYBUJ-209" value="ส่ง Error Code 7&lt;br&gt;ไม่พบข้อมูลการยื่นเอกสาร" style="rounded=1;whiteSpace=wrap;html=1;" vertex="1" parent="1">
          <mxGeometry x="730" y="170" width="150" height="40" as="geometry" />
        </mxCell>
      </root>
    </mxGraphModel>
  </diagram>
</mxfile>
